<svg width="46" height="41" viewBox="0 0 46 41" fill="none" xmlns="http://www.w3.org/2000/svg">
<path d="M42.9589 19.9647C38.6528 12.8694 31.1011 8.57581 22.7444 8.57581C14.3878 8.57581 6.82331 12.8694 2.55553 19.9647L2.19775 20.5L2.52998 21.0466C6.83609 28.1419 14.3878 32.4355 22.7444 32.4355C31.1011 32.4355 38.6655 28.1989 42.9589 21.0466L43.2911 20.5L42.9589 19.9647ZM22.7444 30.1008C15.5505 30.1008 8.94442 26.5247 5.11109 20.5C8.94442 14.4752 15.5505 10.8991 22.7444 10.8991C29.9383 10.8991 36.4678 14.4866 40.365 20.5C36.4678 26.5247 29.9255 30.1008 22.7444 30.1008Z" fill="#999999"/>
<path d="M23.115 12.7214C21.3825 12.7327 19.6926 13.2013 18.2587 14.0681C16.8248 14.9349 15.7113 16.161 15.0588 17.5916C14.4063 19.0221 14.2441 20.5929 14.5926 22.1056C14.9411 23.6183 15.7847 25.0049 17.017 26.0905C18.2492 27.1761 19.8147 27.9118 21.5158 28.2048C23.2169 28.4978 24.9772 28.3349 26.5745 27.7367C28.1718 27.1385 29.5344 26.1319 30.4901 24.8438C31.4459 23.5558 31.952 22.0442 31.9444 20.5C31.9394 19.4721 31.7069 18.4552 31.2601 17.5075C30.8134 16.5598 30.1612 15.7 29.3409 14.9774C28.5207 14.2548 27.5486 13.6836 26.4802 13.2964C25.4118 12.9093 24.2682 12.7139 23.115 12.7214ZM23.115 26.0692C21.8912 26.0579 20.6984 25.7246 19.6865 25.1112C18.6745 24.4977 17.8885 23.6314 17.4271 22.621C16.9658 21.6107 16.8496 20.5013 17.0933 19.4324C17.337 18.3634 17.9297 17.3824 18.7968 16.6127C19.664 15.8429 20.767 15.3187 21.9673 15.1059C23.1676 14.893 24.4118 15.001 25.5434 15.4164C26.6751 15.8317 27.6439 16.5358 28.328 17.4403C29.0122 18.3447 29.3812 19.4092 29.3889 20.5C29.3923 21.2341 29.2321 21.9616 28.9177 22.6401C28.6033 23.3187 28.1409 23.9348 27.5573 24.4529C26.9737 24.9709 26.2805 25.3805 25.518 25.658C24.7554 25.9355 23.9386 26.0752 23.115 26.0692Z" fill="#999999"/>
</svg>
