<svg width="50" height="37" viewBox="0 0 50 37" fill="none" xmlns="http://www.w3.org/2000/svg">
<path d="M34.9861 20.9667C35.385 20.1779 35.5874 19.3422 35.5834 18.5C35.5834 16.6301 34.5795 14.8368 32.7927 13.5145C31.0059 12.1923 28.5825 11.4495 26.0556 11.4495C24.9315 11.4504 23.8168 11.6001 22.7639 11.8914L25 13.5975C25.3399 13.5573 25.6836 13.5367 26.0278 13.5359C27.8145 13.5331 29.5301 14.0536 30.8 14.9837C32.0699 15.9138 32.7909 17.1779 32.8056 18.5C32.8044 18.7548 32.7766 19.009 32.7222 19.2606L34.9861 20.9667Z" fill="#999999"/>
<path d="M47.625 18.017C42.9444 11.6139 34.7361 7.7392 25.6528 7.7392C23.1797 7.74349 20.7231 8.03837 18.375 8.61281L20.6111 10.2778C22.2581 9.96283 23.9517 9.80056 25.6528 9.79475C33.4722 9.79475 40.5833 13.022 44.8194 18.4589C43.2655 20.476 41.2055 22.2551 38.75 23.7006L40.7222 25.16C43.564 23.4635 45.9241 21.3677 47.6667 18.9934L48.0278 18.5L47.625 18.017Z" fill="#999999"/>
<path d="M6.76387 5.94057L12.9583 10.5245C9.04293 12.39 5.8429 14.9704 3.66665 18.017L3.30554 18.5L3.66665 18.9933C8.34721 25.3964 16.5555 29.2711 25.6389 29.2711C29.1842 29.2706 32.6835 28.6768 35.875 27.5342L42.8194 32.6731L45.25 31.1314L9.13887 4.40918L6.76387 5.94057ZM20.3055 15.9614L29.5416 22.7961C28.4981 23.2741 27.2967 23.5302 26.0694 23.5361C25.1777 23.5361 24.2947 23.4057 23.4713 23.1522C22.648 22.8987 21.9005 22.5273 21.2718 22.0592C20.6432 21.5912 20.1459 21.0357 19.8084 20.4249C19.4709 19.8141 19.3 19.1599 19.3055 18.5C19.3212 17.6023 19.6669 16.7247 20.3055 15.9614ZM18.2917 14.4711C16.9923 15.8272 16.3832 17.4797 16.5724 19.1362C16.7615 20.7927 17.7367 22.3462 19.3251 23.5216C20.9136 24.6971 23.0129 25.4187 25.2514 25.5587C27.4898 25.6986 29.723 25.248 31.5555 24.2864L33.7778 25.9308C31.2052 26.7446 28.4366 27.1641 25.6389 27.1642C17.8194 27.1642 10.7083 23.937 6.47221 18.5C8.50513 15.8362 11.4329 13.6059 14.9722 12.025L18.2917 14.4711Z" fill="#999999"/>
</svg>
