<svg width="50" height="50" viewBox="0 0 50 50" fill="none" xmlns="http://www.w3.org/2000/svg">
<path d="M49.5137 20.1037H47.5V20H25V30H39.1287C37.0675 35.8212 31.5287 40 25 40C16.7162 40 10 33.2837 10 25C10 16.7162 16.7162 10 25 10C28.8237 10 32.3025 11.4425 34.9512 13.7987L42.0225 6.7275C37.5575 2.56625 31.585 0 25 0C11.1937 0 0 11.1937 0 25C0 38.8062 11.1937 50 25 50C38.8062 50 50 38.8062 50 25C50 23.3237 49.8275 21.6875 49.5137 20.1037Z" fill="#FFC107"/>
<path d="M2.88074 13.3637L11.0945 19.3875C13.317 13.885 18.6995 10 24.9982 10C28.822 10 32.3007 11.4425 34.9495 13.7987L42.0207 6.7275C37.5557 2.56625 31.5832 0 24.9982 0C15.3957 0 7.06824 5.42125 2.88074 13.3637Z" fill="#FF3D00"/>
<path d="M25.0004 50.0009C31.4579 50.0009 37.3254 47.5297 41.7617 43.5109L34.0242 36.9634C31.4299 38.9364 28.2598 40.0035 25.0004 40.0009C18.4979 40.0009 12.9767 35.8547 10.8967 30.0684L2.7442 36.3497C6.8817 44.4459 15.2842 50.0009 25.0004 50.0009Z" fill="#4CAF50"/>
<path d="M49.5138 20.1038H47.5V20.0001H25V30.0001H39.1288C38.1428 32.7706 36.3667 35.1915 34.02 36.9638L34.0238 36.9613L41.7613 43.5088C41.2138 44.0063 50 37.5001 50 25.0001C50 23.3238 49.8275 21.6876 49.5138 20.1038Z" fill="#1976D2"/>
</svg>
