<svg width="250" height="40" viewBox="0 0 250 40" fill="none" xmlns="http://www.w3.org/2000/svg">
<path d="M224.438 0.472443C223.054 1.03329 221.491 2.20375 220.821 3.20353C219.727 4.78853 219.392 6.1053 219.281 9.08023L219.191 11.9576H217.249H215.329V14.518V17.0784H217.294H219.236V27.9296V38.7807H222.361H225.487V27.9296V17.0784H228.501H231.515V14.518V11.982L228.568 11.9088L225.599 11.8357L225.532 10.3726C225.398 7.30015 226.447 5.86145 228.836 5.86145C229.55 5.86145 230.488 6.03215 230.957 6.25161C231.403 6.44669 231.805 6.59299 231.827 6.54422C232.028 6.25161 233.055 1.37468 232.944 1.20398C232.899 1.08206 232.185 0.765057 231.381 0.496826C229.416 -0.16156 226.09 -0.16156 224.438 0.472443Z" fill="#BCACAC"/>
<path d="M0 13.8353L0.0223254 27.1981L3.19254 29.3439C4.93392 30.5144 9.08645 33.3918 12.3906 35.7327C15.7171 38.0736 18.4855 40 18.5971 40C18.6864 40 18.731 34.0501 18.7087 26.7835L18.6417 13.567L11.4529 8.44625C1.67441 1.47224 0.290231 0.496849 0.133953 0.496849C0.0669763 0.496849 0 6.49548 0 13.8353Z" fill="#F3BFBF"/>
<path d="M112.744 20.0046V38.8051L115.936 38.732L119.106 38.6588L119.173 35.0011L119.218 31.319L120.87 29.539L122.5 27.7833L125.134 31.8799C126.585 34.1233 128.193 36.6105 128.684 37.3664L129.577 38.7807H133.328C135.382 38.7807 137.078 38.7076 137.078 38.6344C137.078 38.5613 135.248 35.6351 132.993 32.1237C126.474 21.9553 126.92 22.7356 127.411 22.126C127.657 21.8334 129.689 19.4193 131.921 16.7614C134.176 14.1035 135.962 11.8845 135.917 11.8357C135.873 11.7625 134.154 11.7869 132.122 11.8845L128.416 12.0308L124.777 16.4444C122.768 18.8585 120.691 21.3457 120.178 21.9553L119.218 23.0526V12.1283V1.22837H115.981H112.744V20.0046Z" fill="#BCACAC"/>
<path d="M153.822 2.22815C151.567 2.49638 149.647 3.106 147.571 4.22769C146.03 5.03238 145.294 5.642 143.642 7.44646C141.922 9.2997 141.454 10.0069 140.583 11.9576C139.042 15.3715 138.752 16.7858 138.752 20.98C138.752 24.0036 138.842 24.784 139.288 26.3446C140.829 31.8067 144.378 36.1716 148.821 38.1468C152.482 39.7805 157.171 39.9512 160.854 38.5857C161.971 38.1955 163.511 37.4396 164.293 36.9275C165.833 35.9277 168.668 33.1235 168.534 32.7577C168.49 32.6358 167.507 31.5629 166.369 30.3924L164.293 28.2466L163.02 29.5634C160.743 31.9287 158.577 32.9284 155.675 32.9284C151.054 32.9284 147.124 29.4658 145.874 24.2719C145.517 22.8332 145.472 18.8829 145.807 17.3223C146.343 14.7619 148.129 11.9089 150.116 10.4702C154.224 7.47085 159.158 8.0317 163.042 11.9576L164.36 13.2744L165.565 11.8357C166.235 11.031 167.173 9.86055 167.664 9.25093L168.534 8.12924L167.597 7.15385C164.114 3.49615 158.823 1.59415 153.822 2.22815Z" fill="#BCACAC"/>
<path d="M35.2743 6.22722V9.2753H40.1858H45.0974V24.028V38.8051L48.4016 38.732L51.6834 38.6588V24.028V9.39723L56.662 9.32407L61.6183 9.2753V6.22722V3.17914H48.4463H35.2743V6.22722Z" fill="#BCACAC"/>
<path d="M236.672 8.22677L236.761 11.8357L234.819 11.9089L232.854 11.982V14.518V17.054L234.819 17.1272L236.761 17.2003L236.873 25.735L236.984 34.2696L237.587 35.5132C238.837 38.1224 241.003 39.3904 244.129 39.366C246.071 39.366 248.437 38.6588 249.464 37.781L250 37.3177L249.107 34.8792L248.214 32.4651L247.522 32.8553C246.026 33.6844 244.062 33.1967 243.481 31.8311C243.191 31.1484 243.124 29.8804 243.124 24.0524V17.0784H245.892H248.683L248.75 14.518L248.817 11.9576H245.982H243.124V8.29993V4.64223H239.864H236.583L236.672 8.22677Z" fill="#BCACAC"/>
<path d="M69.4098 11.6162C67.3559 12.0064 65.7038 12.6891 64.4313 13.6401C62.8461 14.835 62.8461 14.7862 63.9847 17.2247C64.5429 18.4195 65.0787 19.3949 65.168 19.3949C65.235 19.3949 66.1057 18.9316 67.088 18.3708C72.1335 15.5422 76.353 16.9565 76.9335 21.6383L77.0674 22.8575H73.54C66.9317 22.8575 63.5382 24.345 61.9085 28.0027C61.395 29.1732 61.2834 29.7096 61.2834 31.3434C61.2834 32.9772 61.395 33.5136 61.9085 34.6597C62.2434 35.4157 63.0024 36.5373 63.5829 37.1226C66.7754 40.3901 72.8256 40.2438 76.1968 36.83L77.2014 35.8302L77.6256 37.2445L78.0721 38.6588H80.6842H83.2962L83.2739 29.3926C83.2516 19.59 83.1846 18.7122 82.1576 16.5175C80.2153 12.3965 75.1921 10.4701 69.4098 11.6162ZM76.9112 28.9049C76.8888 31.2215 76.5093 32.1237 75.0582 33.1723C71.9326 35.44 67.6461 34.1964 67.6461 31.002C67.6461 28.1734 69.968 26.8323 74.7902 26.9298L76.9112 26.9542V28.9049Z" fill="#BCACAC"/>
<path d="M95.9994 11.4699C92.8069 12.0064 90.7083 13.567 89.4804 16.2981C88.833 17.7124 88.7437 18.1269 88.766 19.7607C88.8106 21.7359 89.0116 22.5649 89.9046 23.9549C90.8199 25.4179 92.1818 26.2226 96.2673 27.7101C101.224 29.5146 102.206 30.4168 101.447 32.4407C101 33.5624 99.8841 33.977 97.7855 33.8307C95.5752 33.6843 93.2311 32.6602 90.9539 30.8557C90.5074 30.49 90.4404 30.5631 89.0116 32.9284L87.5158 35.3669L88.4534 36.1228C90.8423 38.0492 94.526 39.3172 97.7408 39.3416C101.157 39.366 103.836 38.293 105.577 36.2204C106.85 34.7085 107.43 33.1967 107.564 31.0996C107.698 28.7586 107.095 27.0273 105.622 25.5399C104.238 24.1256 103.523 23.7354 99.2589 22.1992C95.4413 20.8336 94.6599 20.2972 94.6599 19.1023C94.6599 17.5905 95.9325 16.737 98.232 16.7614C99.7724 16.7858 101.625 17.4929 103.278 18.6878C104.081 19.273 104.595 19.5169 104.639 19.3462C104.706 19.1755 105.287 18.0782 105.979 16.9077C106.872 15.3471 107.14 14.6643 106.984 14.3961C106.649 13.7865 103.635 12.2502 102.05 11.8601C100.063 11.3968 97.4952 11.2261 95.9994 11.4699Z" fill="#BCACAC"/>
<path d="M197.915 11.5918C195.838 12.0064 194.119 12.7379 192.467 13.9084L191.128 14.8594L192.155 17.0052C192.713 18.1757 193.249 19.2486 193.338 19.3462C193.427 19.4437 194.075 19.1511 194.789 18.6878C196.597 17.4929 198.093 17.0052 199.924 17.0052C203.094 17.0052 205.148 18.9316 205.17 21.8578V22.8576H201.554C197.513 22.8576 195.436 23.2965 193.293 24.5645C188.27 27.5394 188.337 35.6595 193.405 38.3662C197.133 40.3414 201.353 39.7805 204.3 36.8787C204.902 36.2935 205.438 35.8302 205.461 35.879C205.505 35.9277 205.706 36.6105 205.929 37.3664L206.309 38.7807H208.988H211.645V30.173C211.645 25.3936 211.533 20.8824 211.399 20.0046C210.461 13.5182 205.059 10.1288 197.915 11.5918ZM205.126 28.9781C205.059 30.9045 204.992 31.2459 204.434 32.0262C203.116 33.9038 200.125 34.8548 198.138 34.0501C196.731 33.4649 196.017 32.4407 196.017 31.0752C196.017 29.5877 196.508 28.6855 197.669 27.9296C198.941 27.1249 200.058 26.881 202.893 26.8566L205.215 26.8323L205.126 28.9781Z" fill="#BCACAC"/>
<path d="M184.363 11.8113C182.778 12.4209 181.461 13.4695 180.434 14.9325L179.385 16.3956L179.318 14.1766L179.251 11.9576H176.058H172.843L172.955 25.296L173.067 38.6588L176.17 38.732L179.273 38.8051V31.5141C179.273 23.1989 179.385 22.4918 180.836 20.6873C182.108 19.1023 183.604 18.4439 185.926 18.4196H187.757V14.9325V11.4699H186.484C185.77 11.4943 184.832 11.6406 184.363 11.8113Z" fill="#BCACAC"/>
</svg>
